<?xml version="1.0" standalone="no"?>
<!DOCTYPE svg PUBLIC "-//W3C//DTD SVG 20010904//EN"
 "http://www.w3.org/TR/2001/REC-SVG-20010904/DTD/svg10.dtd">
<svg version="1.0" xmlns="http://www.w3.org/2000/svg"
 width="700.000000pt" height="700.000000pt" viewBox="0 0 700.000000 700.000000"
 preserveAspectRatio="xMidYMid meet">
<metadata>
Created by potrace 1.11, written by Peter Selinger 2001-2013
</metadata>
<g transform="translate(0.000000,700.000000) scale(0.100000,-0.100000)"
fill="#000000" stroke="none">
<path d="M3817 6866 c-104 -35 -217 -123 -270 -209 -29 -47 -47 -136 -43 -212
4 -67 27 -178 46 -220 43 -94 52 -128 47 -167 -3 -22 -12 -48 -21 -56 -13 -13
-19 -12 -53 15 -140 110 -318 193 -404 189 -114 -4 -272 -132 -295 -238 -24
-108 7 -244 89 -388 28 -51 165 -255 194 -290 57 -68 259 -334 297 -389 56
-82 71 -154 40 -186 -18 -18 -26 -18 -179 1 -171 21 -413 26 -510 9 -40 -6
-202 -57 -240 -75 -11 -5 -96 -40 -190 -78 -246 -101 -485 -214 -586 -278 -21
-13 -41 -24 -44 -24 -3 0 -51 -33 -106 -72 -240 -172 -293 -300 -220 -530 38
-117 86 -198 157 -264 95 -88 210 -133 353 -139 190 -7 378 48 621 184 79 44
164 75 292 106 549 136 1099 -97 1225 -518 18 -60 23 -224 11 -354 -38 -407
-197 -657 -472 -742 -100 -31 -110 -32 -246 -36 -224 -5 -393 30 -543 113
-129 71 -273 206 -364 342 -20 30 -41 60 -45 65 -5 6 -54 82 -109 170 -280
446 -382 549 -584 583 -86 14 -194 6 -273 -22 -79 -28 -180 -111 -228 -188
-65 -103 -89 -197 -89 -348 1 -230 57 -404 273 -837 173 -348 265 -508 416
-726 179 -257 459 -554 681 -723 118 -91 309 -162 505 -190 19 -2 44 -7 55 -9
123 -26 737 -27 860 -1 12 2 50 7 86 10 68 7 91 10 174 26 28 5 68 12 89 15
22 3 76 15 120 26 621 155 943 471 1201 1179 108 296 281 885 321 1095 4 22 8
45 9 50 5 22 28 181 39 274 19 149 28 704 14 831 -48 444 -298 1171 -575 1670
-16 30 -48 89 -71 130 -22 41 -73 131 -113 200 -40 69 -80 139 -89 156 -48 90
-324 485 -381 544 -8 8 -41 49 -74 90 -76 96 -254 275 -325 327 -166 123 -323
159 -473 109z"/>
</g>
</svg>
